# xmcd
# 
# Track frame offsets:
#     150
#     10721
#     21180
#     33749
#     42881
#     54200
#     65696
#     76899
#     88852
#     99846
#     113335
#     124394
#     139372
#     151305
#     170843
#     186416
# 
# Disc length: 2633
# 
# Revision: 1
# Processed by: cddbd v1.5.2PL0 Copyright (c) Steve Scherf et al.
# Submitted via: BonkEnc v1.0.8
# 
DISCID=d10a4710
DTITLE=The Yardbirds - The Yardbirds
DYEAR=1998
DGENRE=Blues
TTITLE0=I Wish You Would
TTITLE1=A Certain Girl
TTITLE2=Good Morning Little Schoolgirl
TTITLE3=I Ain't Got You
TTITLE4=For Your Love
TTITLE5=Got To Hurry
TTITLE6=Heart Full Of Soul
TTITLE7=Steeled Blues
TTITLE8=Evil Hearted You
TTITLE9=Still I'm Sad
TTITLE10=Shapes Of Things
TTITLE11=Mister,You're A Better Man Than I
TTITLE12=I'm A Man
TTITLE13=New York City Blues
TTITLE14=Train Kept A Rollin'
TTITLE15=Paff...Bum
EXTD=
EXTT0=
EXTT1=
EXTT2=
EXTT3=
EXTT4=
EXTT5=
EXTT6=
EXTT7=
EXTT8=
EXTT9=
EXTT10=
EXTT11=
EXTT12=
EXTT13=
EXTT14=
EXTT15=
PLAYORDER=
